<svg xmlns="http://www.w3.org/2000/svg" width="842" preserveAspectRatio="xMidYMid meet" viewBox="0 0 841.9 218" height="218"><style>  .a{fill:#5c5b60;}</style><path d="m39.2 94.4h8.5v77h32.8v8.2h-41.3v-85.2zm135.9 22.2h36.1v6.2h-29.8v19.8h29.6v6.2h-29.6v24.8h29.6v6.2h-35.9v-63.2zm105 0h6.9l20.9 48.7 21.2-48.7h6.9l-27.4 63.1h-1.4l-27.1-63.1zm127 0h6.4v23.7l25.2-23.7h8.5l-30.3 28.3 32.6 34.8h-8.4l-27.6-29.4v29.4h-6.4v-63.1zm144.5-1.6c9.5 0 17.5 3.2 24 9.6 6.4 6.4 9.7 14.2 9.7 23.5 0 9.2-3.2 17.1-9.6 23.5s-14.2 9.7-23.5 9.7-17.2-3.2-23.7-9.6c-6.4-6.4-9.7-14.1-9.7-23.2 0-6.1 1.5-11.7 4.4-16.8 2.9-5.2 6.9-9.2 12-12.2 5-3 10.5-4.5 16.4-4.5zm0.3 6.1c-4.7 0-9.1 1.2-13.3 3.6s-7.4 5.7-9.8 9.8c-2.3 4.1-3.5 8.7-3.5 13.8 0 7.5 2.6 13.8 7.8 19s11.5 7.7 18.8 7.7c4.9 0 9.4-1.2 13.6-3.6s7.4-5.6 9.7-9.7 3.5-8.7 3.5-13.7-1.2-9.5-3.5-13.6c-2.3-4-5.6-7.3-9.9-9.7-4.2-2.4-8.7-3.6-13.4-3.6zm105.5-4.5h31.6v6.2h-25.3v19.8h25.3v6.2h-25.3v31h-6.3v-63.2zm102.9 0h31.6v6.2h-25.3v19.8h25.3v6.2h-25.3v31h-6.3v-63.2zm-467.2-80h9.4c3.8 0 6.7 0.4 8.7 1.3s3.6 2.3 4.8 4.1c1.2 1.9 1.8 3.9 1.8 6.2 0 2.1-0.5 4-1.5 5.8-1 1.7-2.5 3.1-4.5 4.2 2.5 0.8 4.4 1.8 5.7 3 1.3 1.1 2.4 2.5 3.1 4.1s1.1 3.3 1.1 5.2c0 3.8-1.4 7-4.2 9.7-2.8 2.6-6.5 4-11.2 4h-13.1v-47.6zm4.7 4.6v15.2h2.7c3.3 0 5.7-0.3 7.3-0.9s2.8-1.6 3.7-2.9 1.4-2.8 1.4-4.4c0-2.2-0.8-3.9-2.3-5.1s-3.9-1.9-7.3-1.9h-5.5zm0 20v18.3h5.9c3.5 0 6-0.3 7.7-1 1.6-0.7 2.9-1.7 3.9-3.2 1-1.4 1.5-3 1.5-4.7 0-2.1-0.7-4-2.1-5.5-1.4-1.6-3.3-2.7-5.7-3.2-1.6-0.4-4.4-0.6-8.5-0.6h-2.7zm77.9-24.6h4.8v47.6h-4.8v-47.6zm59.9 0h4.8v43h18.3v4.6h-23.1v-47.6zm76.6 0h4.8v43h18.3v4.6h-23.1v-47.6z" class="a"/></svg>